HIERARCHY
ROOT Hips
{
	OFFSET 0.000000 83.214638 0.000000
	CHANNELS 6 Xposition Yposition Zposition Xrotation Yrotation Zrotation
	JOINT Pelvis
	{
		OFFSET 0.000000 0.000000 0.000000
		CHANNELS 3 Xrotation Yrotation Zrotation
		JOINT LeftUpLeg
		{
			OFFSET 8.479700 -4.795502 -0.379100
			CHANNELS 3 Xrotation Yrotation Zrotation
			JOINT LeftLeg
			{
				OFFSET 0.024144 -32.555107 0.112900
				CHANNELS 3 Xrotation Yrotation Zrotation
				JOINT LeftFoot
				{
					OFFSET -0.024144 -32.638630 -3.012600
					CHANNELS 3 Xrotation Yrotation Zrotation
					JOINT LeftToeBase
					{
						OFFSET 0.970200 -13.225400 11.864200
						CHANNELS 3 Xrotation Yrotation Zrotation
						End Site
						{
							OFFSET 0.000000 12.319262 0.000000
						}
					}
					JOINT LFootTongue
					{
						OFFSET 1.142400 -1.059800 6.665200
						CHANNELS 3 Xrotation Yrotation Zrotation
						End Site
						{
							OFFSET 0.000000 12.319262 0.000000
						}
					}
				}
				JOINT LeftPantLeg
				{
					OFFSET 0.918482 -16.533964 -2.284700
					CHANNELS 3 Xrotation Yrotation Zrotation
					End Site
					{
						OFFSET 0.350399 24.744368 0.000000
					}
				}
			}
		}
		JOINT RightUpLeg
		{
			OFFSET -8.479700 -4.795502 -0.379100
			CHANNELS 3 Xrotation Yrotation Zrotation
			JOINT RightLeg
			{
				OFFSET -0.023144 -32.555092 0.112900
				CHANNELS 3 Xrotation Yrotation Zrotation
				JOINT RightFoot
				{
					OFFSET 0.023144 -32.638641 -3.012700
					CHANNELS 3 Xrotation Yrotation Zrotation
					JOINT RightToeBase
					{
						OFFSET -0.970200 -13.225400 11.864200
						CHANNELS 3 Xrotation Yrotation Zrotation
						End Site
						{
							OFFSET 0.000000 12.319244 0.000000
						}
					}
					JOINT RFootTongue
					{
						OFFSET -1.142200 -1.059800 6.665200
						CHANNELS 3 Xrotation Yrotation Zrotation
						End Site
						{
							OFFSET 0.000000 12.319243 0.000000
						}
					}
				}
				JOINT RightPantLeg
				{
					OFFSET -0.919482 -16.533978 -2.284800
					CHANNELS 3 Xrotation Yrotation Zrotation
					End Site
					{
						OFFSET -0.350400 24.744419 0.000000
					}
				}
			}
		}
	}
	JOINT Spine
	{
		OFFSET 0.000000 7.722000 1.166200
		CHANNELS 3 Xrotation Yrotation Zrotation
		JOINT Spine1
		{
			OFFSET 0.000000 12.024101 0.248800
			CHANNELS 3 Xrotation Yrotation Zrotation
			JOINT Spine2
			{
				OFFSET 0.000000 11.502998 -0.491200
				CHANNELS 3 Xrotation Yrotation Zrotation
				JOINT Neck
				{
					OFFSET 0.000000 18.430702 -3.123100
					CHANNELS 3 Xrotation Yrotation Zrotation
					JOINT Head
					{
						OFFSET 0.000000 9.051102 1.034000
						CHANNELS 3 Xrotation Yrotation Zrotation
						JOINT HairB
						{
							OFFSET 0.208400 24.786102 24.822300
							CHANNELS 3 Xrotation Yrotation Zrotation
							End Site
							{
								OFFSET 0.000000 32.263779 0.000000
							}
						}
						JOINT HairA
						{
							OFFSET -7.081100 24.428299 23.196600
							CHANNELS 3 Xrotation Yrotation Zrotation
							End Site
							{
								OFFSET 0.000000 32.263779 0.000000
							}
						}
						JOINT Hat
						{
							OFFSET 16.728800 15.048294 -15.439601
							CHANNELS 3 Xrotation Yrotation Zrotation
							End Site
							{
								OFFSET 0.000000 32.263779 0.000000
							}
						}
					}
				}
				JOINT LeftShoulder
				{
					OFFSET 6.197800 13.665199 -4.064700
					CHANNELS 3 Xrotation Yrotation Zrotation
					JOINT LeftArm
					{
						OFFSET 7.778100 -0.187103 -1.709300
						CHANNELS 3 Xrotation Yrotation Zrotation
						JOINT LeftForeArm
						{
							OFFSET 22.049376 0.000000 0.000000
							CHANNELS 3 Xrotation Yrotation Zrotation
							JOINT LeftHand
							{
								OFFSET 23.009392 0.000000 0.000000
								CHANNELS 3 Xrotation Yrotation Zrotation
								JOINT LeftHandThumb1
								{
									OFFSET 3.507191 -2.063065 3.133727
									CHANNELS 3 Xrotation Yrotation Zrotation
									JOINT LeftHandThumb2
									{
										OFFSET 3.101337 -1.790558 1.790558
										CHANNELS 3 Xrotation Yrotation Zrotation
										JOINT LeftHandThumb3
										{
											OFFSET 3.058640 -1.765907 1.765906
											CHANNELS 3 Xrotation Yrotation Zrotation
											End Site
											{
												OFFSET -0.415260 3.926476 -0.049563
											}
										}
									}
								}
								JOINT LeftHandIndex1
								{
									OFFSET 11.334419 -0.901459 3.706815
									CHANNELS 3 Xrotation Yrotation Zrotation
									JOINT LeftHandIndex2
									{
										OFFSET 3.283112 0.000000 0.000000
										CHANNELS 3 Xrotation Yrotation Zrotation
										JOINT LeftHandIndex3
										{
											OFFSET 3.323853 0.000000 0.000000
											CHANNELS 3 Xrotation Yrotation Zrotation
											End Site
											{
												OFFSET -1.135597 3.097809 0.402452
											}
										}
									}
								}
								JOINT LeftHandMiddle1
								{
									OFFSET 11.335861 0.000000 0.000000
									CHANNELS 3 Xrotation Yrotation Zrotation
									JOINT LeftHandMiddle2
									{
										OFFSET 3.410492 0.000000 0.000000
										CHANNELS 3 Xrotation Yrotation Zrotation
										JOINT LeftHandMiddle3
										{
											OFFSET 3.312172 0.000000 0.000000
											CHANNELS 3 Xrotation Yrotation Zrotation
											End Site
											{
												OFFSET -1.150200 3.080154 0.400270
											}
										}
									}
								}
								JOINT LeftHandRing1
								{
									OFFSET 11.514786 -0.013176 -3.003090
									CHANNELS 3 Xrotation Yrotation Zrotation
									JOINT LeftHandRing2
									{
										OFFSET 3.053307 0.000000 0.000000
										CHANNELS 3 Xrotation Yrotation Zrotation
										JOINT LeftHandRing3
										{
											OFFSET 3.295807 0.000000 0.000000
											CHANNELS 3 Xrotation Yrotation Zrotation
											End Site
											{
												OFFSET -1.281006 3.013344 0.375733
											}
										}
									}
								}
								JOINT LeftHandPinky1
								{
									OFFSET 10.518692 -0.960396 -5.730441
									CHANNELS 3 Xrotation Yrotation Zrotation
									JOINT LeftHandPinky2
									{
										OFFSET 2.861649 0.000000 0.000000
										CHANNELS 3 Xrotation Yrotation Zrotation
										JOINT LeftHandPinky3
										{
											OFFSET 2.863380 0.000000 0.000000
											CHANNELS 3 Xrotation Yrotation Zrotation
											End Site
											{
												OFFSET -0.843597 2.711159 0.369971
											}
										}
									}
								}
							}
							JOINT LSleeve
							{
								OFFSET 6.676277 -0.344902 -1.011730
								CHANNELS 3 Xrotation Yrotation Zrotation
								End Site
								{
									OFFSET 0.000000 14.885353 0.000000
								}
							}
						}
					}
				}
				JOINT RightShoulder
				{
					OFFSET -6.197800 13.665199 -4.064700
					CHANNELS 3 Xrotation Yrotation Zrotation
					JOINT RightArm
					{
						OFFSET -7.778100 -0.187103 -1.709300
						CHANNELS 3 Xrotation Yrotation Zrotation
						JOINT RightForeArm
						{
							OFFSET -22.049376 0.000000 0.000000
							CHANNELS 3 Xrotation Yrotation Zrotation
							JOINT RightHand
							{
								OFFSET -23.009392 0.000000 0.000000
								CHANNELS 3 Xrotation Yrotation Zrotation
								JOINT RightHandThumb1
								{
									OFFSET -3.507191 -2.063065 3.133727
									CHANNELS 3 Xrotation Yrotation Zrotation
									JOINT RightHandThumb2
									{
										OFFSET -3.101337 -1.790558 1.790558
										CHANNELS 3 Xrotation Yrotation Zrotation
										JOINT RightHandThumb3
										{
											OFFSET -3.058640 -1.765907 1.765906
											CHANNELS 3 Xrotation Yrotation Zrotation
											End Site
											{
												OFFSET 0.415260 3.926476 -0.049563
											}
										}
									}
								}
								JOINT RightHandIndex1
								{
									OFFSET -11.334419 -0.901459 3.706815
									CHANNELS 3 Xrotation Yrotation Zrotation
									JOINT RightHandIndex2
									{
										OFFSET -3.283112 0.000000 0.000000
										CHANNELS 3 Xrotation Yrotation Zrotation
										JOINT RightHandIndex3
										{
											OFFSET -3.323853 0.000000 0.000000
											CHANNELS 3 Xrotation Yrotation Zrotation
											End Site
											{
												OFFSET 1.135597 3.097809 0.402452
											}
										}
									}
								}
								JOINT RightHandMiddle1
								{
									OFFSET -11.335861 0.000000 0.000000
									CHANNELS 3 Xrotation Yrotation Zrotation
									JOINT RightHandMiddle2
									{
										OFFSET -3.410492 0.000000 0.000000
										CHANNELS 3 Xrotation Yrotation Zrotation
										JOINT RightHandMiddle3
										{
											OFFSET -3.312172 0.000000 0.000000
											CHANNELS 3 Xrotation Yrotation Zrotation
											End Site
											{
												OFFSET 1.150200 3.080154 0.400270
											}
										}
									}
								}
								JOINT RightHandRing1
								{
									OFFSET -11.514786 -0.013176 -3.003090
									CHANNELS 3 Xrotation Yrotation Zrotation
									JOINT RightHandRing2
									{
										OFFSET -3.053307 0.000000 0.000000
										CHANNELS 3 Xrotation Yrotation Zrotation
										JOINT RightHandRing3
										{
											OFFSET -3.295807 0.000000 0.000000
											CHANNELS 3 Xrotation Yrotation Zrotation
											End Site
											{
												OFFSET 1.281006 3.013344 0.375733
											}
										}
									}
								}
								JOINT RightHandPinky1
								{
									OFFSET -10.518692 -0.960396 -5.730441
									CHANNELS 3 Xrotation Yrotation Zrotation
									JOINT RightHandPinky2
									{
										OFFSET -2.861649 0.000000 0.000000
										CHANNELS 3 Xrotation Yrotation Zrotation
										JOINT RightHandPinky3
										{
											OFFSET -2.863380 0.000000 0.000000
											CHANNELS 3 Xrotation Yrotation Zrotation
											End Site
											{
												OFFSET 0.843597 2.711159 0.369971
											}
										}
									}
								}
							}
							JOINT RSleeve
							{
								OFFSET -6.676277 -0.344902 -1.011730
								CHANNELS 3 Xrotation Yrotation Zrotation
								End Site
								{
									OFFSET 0.000000 14.885353 0.000000
								}
							}
						}
					}
				}
				JOINT Backpack
				{
					OFFSET 0.000000 -2.471497 36.677502
					CHANNELS 3 Xrotation Yrotation Zrotation
					End Site
					{
						OFFSET 0.000000 20.427315 0.000000
					}
				}
				JOINT Hood
				{
					OFFSET 0.000000 18.754097 -10.431000
					CHANNELS 3 Xrotation Yrotation Zrotation
					JOINT Hood1
					{
						OFFSET 0.000000 -5.011002 -7.685901
						CHANNELS 3 Xrotation Yrotation Zrotation
						End Site
						{
							OFFSET 0.000000 9.175140 0.000000
						}
					}
				}
				JOINT LHoodieString
				{
					OFFSET 5.250500 16.397697 3.089900
					CHANNELS 3 Xrotation Yrotation Zrotation
					JOINT LHoodieString1
					{
						OFFSET 0.257700 -6.364304 3.694600
						CHANNELS 3 Xrotation Yrotation Zrotation
						JOINT LHoodieString2
						{
							OFFSET 0.000000 -9.643799 2.679100
							CHANNELS 3 Xrotation Yrotation Zrotation
							End Site
							{
								OFFSET 0.000000 10.009018 0.000000
							}
						}
					}
				}
				JOINT RHoodieString
				{
					OFFSET -5.250500 16.397697 3.089900
					CHANNELS 3 Xrotation Yrotation Zrotation
					JOINT RHoodieString1
					{
						OFFSET -0.257700 -6.364304 3.694600
						CHANNELS 3 Xrotation Yrotation Zrotation
						JOINT RHoodieString2
						{
							OFFSET 0.000000 -9.643799 2.679100
							CHANNELS 3 Xrotation Yrotation Zrotation
							End Site
							{
								OFFSET 0.000000 10.009018 0.000000
							}
						}
					}
				}
			}
			JOINT LBackpack_Strap
			{
				OFFSET 15.223200 -7.719803 -6.610900
				CHANNELS 3 Xrotation Yrotation Zrotation
				End Site
				{
					OFFSET 0.000000 16.040596 0.000000
				}
			}
			JOINT RBackpack_Strap
			{
				OFFSET -15.223000 -7.719803 -6.610900
				CHANNELS 3 Xrotation Yrotation Zrotation
				End Site
				{
					OFFSET 0.000000 16.040596 0.000000
				}
			}
		}
	}
	JOINT BoyFacialAnim_Joint
	{
		OFFSET 1.000000 -82.208099 -1.550900
		CHANNELS 3 Xrotation Yrotation Zrotation
		End Site
		{
			OFFSET 0.000000 30.012791 0.000000
		}
	}
}
MOTION
Frames: 4
Frame Time: 0.033333
-0.549210 74.399536 2.405420 5.427052 -55.851799 7.921697 -0.000000 0.000000 -0.000000 -36.485030 10.600194 22.713535 43.633448 -9.455794 -9.131736 -10.821530 -2.324461 -6.178655 -0.000000 -0.000000 -0.000000 -0.000000 -0.000000 0.000000 0.000001 -0.000002 0.000000 -29.916929 -9.627063 -26.320194 42.929238 0.734032 -7.325726 -17.968134 2.577282 23.137585 -0.000000 -0.000001 0.000000 -0.000000 -0.000001 0.000000 -0.000001 0.000001 0.000001 11.100458 0.469227 -2.845940 8.494624 0.769276 -5.385766 7.630012 0.760427 -5.388521 -20.423488 24.177319 12.333199 4.347579 25.950459 -2.629499 -0.000001 -0.000000 -0.000001 -0.000001 -0.000000 -0.000001 -0.000001 -0.000000 -0.000001 -6.048993 -12.043861 -2.974412 -22.796919 8.621139 -36.514386 0.046236 -43.991794 -0.010651 23.043451 -5.126603 16.325921 -2.184886 -13.729014 6.236992 0.438439 14.699283 -4.172949 0.000001 -0.000001 0.000001 13.302286 -0.983867 16.903236 -0.173610 0.283674 -24.883952 -0.000001 -0.000001 -0.000000 8.563158 -0.402189 5.305935 0.218119 0.637841 -23.680042 0.000002 -0.000000 -0.000001 6.171061 3.076575 -9.993168 0.032082 0.280689 -23.903852 0.000001 -0.000001 0.000003 -5.589904 7.677390 -7.655863 0.200581 0.261674 -40.366592 -0.000001 -0.000001 0.000003 0.000003 0.000001 0.000004 -6.741962 11.838420 2.432578 -34.188990 -21.226609 35.573008 19.193813 114.237612 -19.498810 -8.382766 12.662774 -11.283237 0.741589 5.655570 -12.486363 2.771737 -21.426626 1.438913 -0.000000 0.000001 0.000000 19.468057 11.192041 -8.663745 -0.114436 -0.336330 22.723601 0.000001 -0.000001 0.000002 4.290367 2.391223 -0.122260 0.366034 -0.504048 31.578434 -0.000000 0.000002 0.000000 -7.025934 -10.750764 10.393426 0.112679 -0.120785 30.843789 -0.000002 0.000002 0.000002 -19.429703 -20.238107 10.670215 0.230878 -0.102378 41.532502 0.000001 -0.000001 0.000000 0.000000 -0.000004 -0.000003 -0.000001 -0.000001 -0.000000 -0.000001 -0.000001 -0.000000 -0.000001 -0.000001 -0.000000 -0.000001 -0.000001 -0.000000 -0.000001 -0.000001 -0.000000 -0.000001 -0.000000 0.000001 -0.000001 -0.000001 -0.000000 -0.000001 -0.000001 -0.000000 -0.000001 -0.000000 0.000001 0.000003 0.000004 -0.000001 0.000003 0.000004 -0.000001 -0.000000 0.000000 -0.000000 
-0.473304 74.305397 2.098570 5.004944 -56.083718 7.715529 0.000000 -0.000001 -0.000000 -36.358658 10.700754 22.898380 43.528434 -9.587307 -9.175276 -10.651294 -2.300749 -6.422061 -0.000000 0.000001 -0.000000 -0.000000 0.000001 -0.000000 -0.000000 -0.000005 0.000001 -30.318284 -9.391706 -26.306503 43.764328 0.893921 -7.374325 -18.199825 2.585982 22.860390 0.000000 0.000001 -0.000000 0.000000 0.000001 -0.000000 -0.000000 0.000000 0.000001 11.145815 0.377288 -2.828028 8.477301 0.560488 -5.395862 7.717724 0.571009 -5.385231 -20.747427 24.517360 12.315385 4.133714 26.003077 -3.096644 0.000000 0.000000 0.000000 0.000000 0.000000 0.000000 0.000000 0.000000 0.000000 -6.079201 -11.958708 -3.152912 -22.787517 9.002348 -36.458604 0.046319 -44.120365 -0.010594 23.044548 -5.072181 16.328523 -1.996503 -12.819509 6.601914 0.752128 15.530274 -3.827698 0.000002 -0.000000 -0.000000 13.307456 -0.987337 15.921309 -0.172674 0.287919 -25.866025 -0.000003 -0.000001 -0.000002 8.552177 -0.392405 4.323831 0.220170 0.642333 -24.662227 0.000001 -0.000002 0.000002 6.165857 3.086325 -10.974829 0.033220 0.287226 -24.886003 0.000002 -0.000000 -0.000004 -5.591633 7.682548 -8.636388 0.204195 0.265676 -41.348770 -0.000001 0.000001 -0.000000 0.000002 0.000002 0.000002 -6.738521 11.382055 2.434199 -34.688342 -22.408560 35.235092 20.086932 114.193099 -19.937631 -8.404414 12.646227 -11.184416 0.674157 6.324827 -12.245020 2.563189 -20.815937 1.674330 -0.000001 -0.000002 -0.000001 19.467257 11.190020 -9.376555 -0.115079 -0.335998 22.011336 -0.000001 0.000004 0.000002 4.298706 2.398549 -0.834658 0.364171 -0.502072 30.866185 0.000002 0.000003 0.000004 -7.021230 -10.743220 9.681197 0.112374 -0.115801 30.131547 0.000002 0.000001 0.000002 -19.425319 -20.233004 9.956589 0.230835 -0.099951 40.820294 -0.000004 0.000001 0.000000 -0.000000 -0.000000 -0.000000 0.000003 -0.000002 -0.000000 0.000003 -0.000002 -0.000000 0.000003 -0.000002 -0.000000 0.000003 -0.000002 -0.000000 0.000003 -0.000002 -0.000000 0.000002 0.000002 -0.000002 0.000003 -0.000002 -0.000000 0.000003 -0.000002 -0.000000 0.000002 0.000002 -0.000002 0.000001 0.000001 0.000000 0.000001 0.000001 0.000000 0.000000 -0.000001 -0.000000 
-0.398871 74.231674 1.780628 4.605525 -56.383529 7.524393 0.000000 0.000000 0.000000 -36.175451 10.787027 23.076614 43.373590 -9.643394 -9.248155 -10.510536 -2.211966 -6.581511 0.000000 -0.000000 0.000000 0.000000 -0.000000 0.000000 -0.000000 0.000000 0.000000 -30.722707 -9.169301 -26.264649 44.522677 1.109498 -7.411184 -18.378226 2.615531 22.539209 0.000000 0.000001 0.000000 0.000000 0.000001 0.000000 -0.000000 0.000000 -0.000001 11.204128 0.309154 -2.814844 8.465461 0.415501 -5.414505 7.811945 0.430894 -5.395407 -21.001099 24.704863 12.260632 3.396849 25.958534 -3.396697 0.000001 0.000000 0.000001 0.000001 0.000000 0.000001 0.000001 0.000000 0.000001 -6.106479 -11.878928 -3.356208 -22.828026 9.180099 -36.359143 0.046358 -44.133684 -0.010506 23.000911 -5.054052 16.324743 -1.802646 -11.859574 6.982852 1.078749 16.408157 -3.467015 -0.000002 -0.000002 -0.000001 13.313336 -0.991012 14.885970 -0.171693 0.292339 -26.901586 -0.000000 -0.000001 -0.000000 8.540861 -0.380467 3.288335 0.222358 0.646469 -25.697796 0.000001 0.000001 0.000000 6.159438 3.096907 -12.009900 0.036037 0.294136 -25.921553 0.000001 -0.000001 -0.000002 -5.595736 7.688110 -9.670908 0.208070 0.269729 -42.384305 -0.000001 -0.000001 -0.000002 0.000005 0.000001 -0.000000 -6.716458 10.974837 2.435941 -35.086774 -23.512738 34.895040 20.413694 114.081412 -19.933234 -8.407745 12.643219 -11.169619 0.599391 7.045580 -11.984554 2.336752 -20.159003 1.929381 -0.000000 -0.000001 -0.000000 19.466364 11.187831 -10.143607 -0.115763 -0.335702 21.244347 -0.000001 0.000000 0.000004 4.307268 2.406302 -1.601932 0.362945 -0.499961 30.099138 0.000003 0.000001 0.000003 -7.016698 -10.735066 8.914907 0.112160 -0.110459 29.364578 -0.000004 0.000000 0.000002 -19.421460 -20.229128 9.189645 0.230798 -0.097265 40.053257 -0.000001 -0.000002 -0.000000 0.000001 0.000000 -0.000000 -0.000000 0.000001 -0.000001 -0.000000 0.000001 -0.000001 -0.000000 0.000001 -0.000001 -0.000000 0.000001 -0.000001 -0.000000 0.000001 -0.000002 -0.000002 -0.000000 -0.000000 -0.000000 0.000001 -0.000001 -0.000000 0.000001 -0.000002 -0.000002 -0.000000 -0.000000 0.000003 0.000001 -0.000000 0.000003 0.000001 -0.000000 0.000000 0.000000 0.000000 
-0.346190 74.159477 1.459829 4.233152 -56.812274 7.361571 -0.000000 0.000005 -0.000000 -35.883498 10.723123 23.293479 43.230668 -9.392709 -9.459108 -10.368536 -2.157463 -6.800749 -0.000000 0.000002 -0.000000 -0.000000 0.000002 -0.000000 0.000001 0.000004 -0.000001 -31.174650 -8.936144 -26.204349 45.289605 1.439575 -7.441474 -18.555397 2.659856 22.153266 -0.000000 0.000000 -0.000000 -0.000000 0.000000 -0.000000 -0.000001 -0.000000 -0.000004 11.263646 0.267244 -2.805178 8.457001 0.309484 -5.438404 7.913676 0.341071 -5.435313 -21.123414 24.843935 12.209259 2.282904 25.866002 -3.628135 0.000000 -0.000000 -0.000000 0.000000 -0.000000 -0.000000 0.000000 -0.000000 -0.000000 -6.124360 -11.853519 -3.557100 -22.892595 9.294368 -36.260381 0.046288 -44.042764 -0.010578 22.927074 -5.134886 16.324593 -1.614421 -10.899778 7.358991 1.400899 17.287011 -3.109981 -0.000001 -0.000001 0.000000 13.320652 -0.994769 13.851672 -0.170688 0.296527 -27.936071 0.000000 0.000001 -0.000002 8.529745 -0.368277 2.253924 0.224617 0.650254 -26.732269 0.000003 0.000000 0.000004 6.152421 3.107664 -13.043936 0.038955 0.301099 -26.955980 0.000001 0.000001 -0.000004 -5.601635 7.693692 -10.705161 0.211995 0.273382 -43.418816 -0.000000 -0.000001 0.000001 0.000005 0.000000 0.000001 -6.609122 10.640226 2.439065 -35.431005 -24.480383 34.633290 20.472215 113.930520 -19.752451 -8.389952 12.655347 -11.250875 0.521412 7.776158 -11.719939 2.104952 -19.493949 2.189533 -0.000000 0.000002 0.000001 19.465423 11.185778 -10.920465 -0.116477 -0.335014 20.466773 -0.000000 0.000001 0.000002 4.314430 2.413996 -2.379754 0.361197 -0.497840 29.321654 0.000002 0.000001 0.000005 -7.012955 -10.726975 8.138940 0.111961 -0.105429 28.586975 -0.000002 -0.000001 0.000004 -19.418771 -20.226669 8.413885 0.230813 -0.094531 39.275780 -0.000004 0.000001 -0.000001 0.000000 0.000000 -0.000000 0.000001 -0.000001 0.000001 0.000001 -0.000001 0.000001 0.000001 -0.000001 0.000001 0.000001 -0.000001 0.000001 0.000001 -0.000001 -0.000000 -0.000001 -0.000001 -0.000001 0.000001 -0.000001 0.000001 0.000001 -0.000001 -0.000000 -0.000001 -0.000001 -0.000001 0.000002 0.000002 -0.000001 0.000002 0.000002 -0.000001 -0.000000 0.000005 -0.000000 
